# xmcd CD database file
#
# Track frame offsets:
#	150
#	6523
#	18862
#	32780
#	47660
#	64475
#	74439
#	99428
#	111774
#	137325
#	150334
#	160355
#	176432
#	187940
#	200651
#	211747
#	235390
#	247740
#	262765
#	279798
#	291069
#	303711
#
# Disc length: 4199 seconds
#
# Revision: 0
# Processed by: cddbd v1.5.2PL0 Copyright (c) Steve Scherf et al.
# Submitted via: CDex 1.51
#
DISCID=28106516
DTITLE=Mick Jagger and the Red Devils - Bootleg Blues
DYEAR=1992
DGENRE=Blues
TTITLE0=Intro
TTITLE1=Mean Ol' World
TTITLE2=You Better Watch Yourself
TTITLE3=Checking Up On My Baby
TTITLE4=Still A Fool
TTITLE5=Ain't Your Business
TTITLE6=Shake 'Em On Down
TTITLE7=40 Days and 40 Nights
TTITLE8=Dream Girl
TTITLE9=Evil
TTITLE10=One Way Out
TTITLE11=Blues With A Feelin'
TTITLE12=Talk To Me Baby
TTITLE13=Don't Go No Further
TTITLE14=Blues With A Feelin'  (Take 2)
TTITLE15=Dream Girl  (Take 3)
TTITLE16=Evil  (Take 3)
TTITLE17=Blues With A Feelin'  (Take 1)
TTITLE18=Still A Fool  (Take 1)
TTITLE19=One Way Out  (Take 1)
TTITLE20=40 Days 40 Night  (Take 2)
TTITLE21=Evil  (Take 1)
EXTD=YEAR: 1992
EXTT0=
EXTT1=
EXTT2=
EXTT3=
EXTT4=
EXTT5=
EXTT6=
EXTT7=
EXTT8=
EXTT9=
EXTT10=
EXTT11=
EXTT12=
EXTT13=
EXTT14=
EXTT15=
EXTT16=
EXTT17=
EXTT18=
EXTT19=
EXTT20=
EXTT21=
PLAYORDER=
